<?xml version="1.0" encoding="utf-8"?>
<!-- Generator: Adobe Illustrator 16.0.3, SVG Export Plug-In . SVG Version: 6.00 Build 0)  -->
<!DOCTYPE svg PUBLIC "-//W3C//DTD SVG 1.1//EN" "http://www.w3.org/Graphics/SVG/1.1/DTD/svg11.dtd">
<svg version="1.1" id="Layer_1" xmlns="http://www.w3.org/2000/svg" xmlns:xlink="http://www.w3.org/1999/xlink" x="0px" y="0px"
	 width="120px" height="20px" viewBox="0 0 120 20" enable-background="new 0 0 120 20" xml:space="preserve">
<g>
	<polygon fill="#FF7E1A" points="13.091,6.75 9.994,0.487 6.915,6.75 0,7.756 5.005,12.632 3.825,19.513 10.005,16.26
		16.193,19.506 15.004,12.622 20,7.751"/>

	<polygon fill="#FF7E1A" points="38.091,6.75 34.994,0.487 31.915,6.75 25.0,7.756 30.005,12.632 28.825,19.513 35.005,16.26 41.193,19.506 40.004,12.622 45.0,7.751"/>

	<polygon fill="#FF7E1A" points="63.091,6.75 59.994,0.487 56.915,6.75 50.0,7.756 55.005,12.632 53.825,19.513 60.005,16.26 66.193,19.506 65.004,12.622 70.0,7.751"/>

	<polygon fill="#CFCFCF" points="88.091,6.75 84.994,0.487 81.915,6.75 75.0,7.756 80.005,12.632 78.825,19.513 85.005,16.26 91.193,19.506 90.004,12.622 95.0,7.751"/>

	<polygon fill="#CFCFCF" points="113.091,6.75 109.994,0.487 106.915,6.75 100.0,7.756 105.005,12.632 103.825,19.513 110.005,16.26 116.193,19.506 115.004,12.622 120.0,7.751"/>

</g>
</svg>
